<svg xmlns="http://www.w3.org/2000/svg" fill="none" height="20" viewBox="0 0 20 20" width="20"><g fill="#fff" stroke="#fff" stroke-width=".2" transform="translate(-.6234 -.000345)"><path d="m18.8844 10.0003c0-4.64774-3.704-8.43331-8.2602-8.43331-4.55624 0-8.2618 3.78555-8.2618 8.43331 0 4.6478 3.70556 8.4334 8.2618 8.4334 4.5562 0 8.2602-3.7856 8.2602-8.4334zm-.9654 0c0 4.1102-3.2751 7.4517-7.2948 7.4517-4.01968 0-7.29477-3.3415-7.29477-7.4517 0-4.11013 3.2735-7.45165 7.29477-7.45165 4.0213 0 7.2948 3.34152 7.2948 7.45165z"/><path d="m10.5522 4.15232-.0894-.04476c-.1049.20971-.2089.41958-.3128.62929-.19788.39947-.39548.79835-.59895 1.1943-.03965.07707-.06529.15303-.06664.23444-.00137.08192.022.15932.0635.23918.30896.60159.61269 1.20648.91659 1.81153.1142.22746.2284.45496.3429.6823.2717.53954.5434 1.07769.8163 1.617h-.8822-.1684l.0806.1478.8022 1.4722.0285.0521h.0593.927l.4185.827.4513.8917.0002.0005c.0237.0461.0606.0965.1021.1367.0209.0202.0451.04.0717.0554.0258.0149.0598.0292.0987.0302h.0009c.5737.0094 1.1465.0089 1.7515.0084.1364-.0001.2743-.0002.4143-.0002h.1627l-.0735-.1451c-.5914-1.1684-1.18-2.3307-1.7673-3.4906-1.112-2.19611-2.2196-4.38352-3.3342-6.58718l-.007-.01386-.0109-.01109-.0016-.00164-.0877-.08927-.0677.10523c-.0221.03428-.0405.0614-.0571.08588-.006.00881-.0118.01729-.0174.02563-.0206.0306-.0396.06002-.0557.09283zm0 0c.0155-.03149.035-.06063.0613-.09936l-.97674 2.30593c-.07279-.13997-.06793-.24371.00323-.38203.20378-.39656.40201-.79666.60011-1.19658.1038-.20955.2076-.41905.3121-.62796z"/><path d="m7.72077 14.1295c.03566-.0001.0667-.0124.08955-.0247.02384-.0129.04549-.0295.06401-.0464.03654-.0333.06974-.0756.09087-.1152h.00002l.00075-.0015c.39636-.7741.79112-1.5499 1.18267-2.3274l.02356-.0468-.02505-.046-.43871-.8056h.77951.1v-.1c0-.0693-.01339-.1409-.03908-.1997l-.00739-.0169-.00184-.0019c-.08985-.2013-.19409-.39797-.2966-.59135-.03805-.07179-.07587-.14312-.11262-.21408-.20542-.3985-.41082-.79698-.64049-1.2432l-.0897-.1743-.08845.17494c-.96077 1.90029-1.89729 3.75279-2.8516 5.64159l-.07331.1451h.16257c.152 0 .30224.0001.45105.0003.58823.0005 1.15432.001 1.72028-.0069zm0 0c-.00023 0-.00047 0-.0007 0v-.1l.00139.1c-.00023 0-.00046 0-.00069 0z"/></g></svg>