<svg width="30" height="28" viewBox="0 0 30 28" fill="none" xmlns="http://www.w3.org/2000/svg">
<path d="M18.0715 0L16.6456 0.66061L14.8148 8.28788L18.5849 1.34651L18.0715 0ZM2.4683 1.51297C3.17801 6.28262 5.47068 10.2804 8.67938 13.6483C9.56694 13.0477 10.4497 12.44 11.3276 11.8254C9.9541 10.1321 8.98117 8.34107 8.62513 6.47654C6.50406 4.83419 4.43345 3.16747 2.4683 1.51297ZM26.6752 1.51495C24.7585 3.12916 22.7413 4.75527 20.6751 6.3603C20.0345 9.97047 17.074 13.3082 13.3462 16.1941C9.28977 19.3343 4.26037 21.9554 0.000124039 23.7205L0 25.7527C5.80576 23.6367 12.123 20.7077 17.1647 16.6649C22.0644 12.7358 25.7403 7.79571 26.6752 1.51495ZM12.0348 2.09423L11.5078 3.81847L14.0302 8.34777L13.604 3.05904L12.0348 2.09423ZM19.1447 7.53813C12.6208 12.5132 5.73118 17.1871 0.000124039 20.4755V22.4652C4.0866 20.7346 8.83926 18.2179 12.6373 15.2777C15.7264 12.8863 18.1437 10.2243 19.1447 7.53813ZM10.1827 7.67172C10.6383 8.84279 11.3624 10.0077 12.2905 11.1473C12.7263 10.8386 13.1619 10.5255 13.5982 10.2116C12.4548 9.37737 11.3129 8.53034 10.1827 7.67172ZM20.6345 15.1325C20.0411 15.7197 19.4207 16.2848 18.7805 16.8314C22.1849 19.1434 26.048 21.1187 29.4377 22.5446V20.6171C26.7186 19.068 23.7279 17.1994 20.6345 15.1325ZM17.8506 17.6005C17.1284 18.1783 16.3816 18.732 15.617 19.2647C19.9768 22.0628 24.8746 24.2103 29.4376 25.8593V23.7999C25.7888 22.2982 21.5582 20.1592 17.8506 17.6005ZM14.2162 20.8262L11.3528 25.6773L11.8372 27.1399L13.5575 26.4366L14.2162 20.8262ZM15.1984 20.8766L18.3833 27.3627L20.6443 28L20.4252 26.0182L15.1984 20.8766Z" fill="#E7E7E7"/>
</svg>
